<?xml version="1.0" encoding="utf-8"?>
<!-- Generator: Adobe Illustrator 24.3.0, SVG Export Plug-In . SVG Version: 6.00 Build 0)  -->
<svg version="1.1" id="Layer_1" xmlns="http://www.w3.org/2000/svg" xmlns:xlink="http://www.w3.org/1999/xlink" x="0px" y="0px"
	 viewBox="0 0 595.3 165" style="enable-background:new 0 0 595.3 165;" xml:space="preserve">
<style type="text/css">
	.st0{fill:#F29100;}
	.st1{fill:#D60B51;}
	.st2{fill:#009EE2;}
	.st3{fill:none;}
	.st4{fill:#FFFFFF;}
</style>
<path class="st0" d="M80.4,20.5c0,4.7-2,8.9-5.1,11.9L73,34.1l-54.1,43l0,0c-1.4,1.2-3.1,1.9-5.1,1.9c-4.4,0-7.9-3.6-7.9-7.9
	c0-2,0.7-3.8,2-5.2l43.2-55.1l0.6-0.7c3-3.6,7.5-5.9,12.6-5.9C73.1,4.2,80.4,11.5,80.4,20.5z"/>
<path class="st1" d="M40.6,146.2c4.7,0,8.9-2,11.9-5.1l1.8-2.2l43-54.1l0,0c1.2-1.4,1.9-3.1,1.9-5.1c0-4.4-3.6-7.9-7.9-7.9
	c-2,0-3.8,0.7-5.2,2L31,117l-0.7,0.6c-3.6,3-5.9,7.5-5.9,12.6C24.3,138.9,31.6,146.2,40.6,146.2z"/>
<path class="st2" d="M34.7,74.9"/>
<path class="st2" d="M72.2,66.2c0,2.2-0.8,4.2-2.2,5.7l-1.8,1.5l-23,19c-1.5,1.3-3.4,2.1-5.5,2.1c-4.6,0-8.4-3.7-8.4-8.4
	c0-3,1.5-5.6,3.9-7L58.4,60l0,0c1.5-1.3,3.4-2.1,5.5-2.1C68.4,57.9,72.2,61.6,72.2,66.2z"/>
<line class="st3" x1="35.1" y1="74.6" x2="34.7" y2="74.9"/>
<g>
	<path class="st4" d="M137.8,133.5V77.1h-8.9V63.7h25.4v69.8L137.8,133.5L137.8,133.5z M146.2,36.7c2.6,0,4.8,0.9,6.7,2.8
		c1.8,1.8,2.8,4.1,2.8,6.7c0,2.6-0.9,4.8-2.8,6.7c-1.8,1.8-4.1,2.8-6.7,2.8c-2.6,0-4.8-0.9-6.7-2.8c-1.8-1.8-2.8-4.1-2.8-6.7
		c0-2.6,0.9-4.8,2.8-6.7C141.4,37.6,143.6,36.7,146.2,36.7z"/>
	<path class="st4" d="M218.1,133.5V93.2c0-5.9-1.1-10.3-3.4-13c-2.3-2.7-6-4.1-11.2-4.1c-2.4,0-4.9,0.7-7.7,2c-2.7,1.3-4.8,3-6.4,5
		v50.4h-16.3V63.7H185l3,6.5c4.4-5.2,11-7.8,19.6-7.8c8.3,0,14.8,2.5,19.6,7.5s7.2,11.9,7.2,20.8v42.8H218.1z"/>
	<path class="st4" d="M290.9,50c-3.6-1.2-6.3-1.8-8.2-1.8c-3.1,0-5.7,1.3-7.8,4c-2.1,2.6-3.2,5.9-3.2,9.8c0,0.6,0,1.1,0.1,1.7h14.5
		v13.4h-14.2v56.3h-16.3V77.1h-10.2V63.7h10.2c0.3-8.6,2.9-15.5,7.6-20.7c4.7-5.3,10.8-7.9,18.3-7.9c3.9,0,8.6,0.8,14.1,2.5
		L290.9,50z"/>
	<path class="st4" d="M296.7,98.4c0-10.6,3.1-19.3,9.2-26s14.3-10,24.3-10c10.6,0,18.8,3.2,24.7,9.6c5.9,6.4,8.8,15.2,8.8,26.4
		c0,11.1-3,20-9,26.5c-6,6.6-14.1,9.8-24.5,9.8c-10.6,0-18.8-3.3-24.7-9.9C299.7,118.2,296.7,109.4,296.7,98.4z M313.7,98.4
		c0,15.4,5.5,23.1,16.6,23.1c5.1,0,9.1-2,12.1-6s4.5-9.7,4.5-17.1c0-15.2-5.5-22.7-16.5-22.7c-5.1,0-9.1,2-12.1,6
		C315.2,85.7,313.7,91.3,313.7,98.4z"/>
	<path class="st4" d="M431.5,69.3l-7,12.2c-3.8-3.6-8.9-5.4-15.4-5.4c-6.2,0-11,2.1-14.6,6.2c-3.6,4.1-5.4,9.8-5.4,17
		c0,14.6,7,21.9,20.9,21.9c6,0,11.4-2,16-6l6,12.8c-4.7,3-8.9,4.8-12.4,5.6c-3.5,0.8-7.7,1.2-12.5,1.2c-10.8,0-19.3-3.1-25.5-9.4
		c-6.2-6.3-9.3-15-9.3-26.2c0-11,3.4-19.9,10.2-26.6c6.8-6.8,16.1-10.2,27.9-10.2C418.4,62.4,425.5,64.7,431.5,69.3z"/>
	<path class="st4" d="M447.8,37.7l16.3-3.9v78.4c0,8.6,2.6,13.7,7.7,15.4c-2.5,4.8-6.8,7.2-12.9,7.2c-7.4,0-11.1-5.1-11.1-15.4V37.7
		z"/>
	<path class="st4" d="M488.7,133.5V77.1h-8.9V63.7h25.4v69.8L488.7,133.5L488.7,133.5z M497.1,36.7c2.6,0,4.8,0.9,6.7,2.8
		c1.8,1.8,2.8,4.1,2.8,6.7c0,2.6-0.9,4.8-2.8,6.7c-1.8,1.8-4.1,2.8-6.7,2.8s-4.8-0.9-6.7-2.8c-1.8-1.8-2.8-4.1-2.8-6.7
		c0-2.6,0.9-4.8,2.8-6.7C492.3,37.6,494.5,36.7,497.1,36.7z"/>
	<path class="st4" d="M569.5,160.8v-29.3c-3.9,2.2-9.3,3.3-16.2,3.3c-10.2,0-18.1-3.1-23.8-9.3c-5.7-6.2-8.6-14.9-8.6-26.2
		c0-11.2,3.3-20.2,9.9-26.9c6.6-6.7,15-10,25.2-10c6.1,0,11.6,1.8,16.5,5.5l2.7-4.2h10.6v97.1L569.5,160.8L569.5,160.8z M569.5,80.3
		c-2.9-2.7-6.7-4-11.4-4c-6.3,0-11.3,2.1-14.9,6.3c-3.6,4.2-5.4,9.8-5.4,16.8c0,14.5,6.6,21.8,19.7,21.8c4.8,0,8.8-1.1,11.9-3.4
		V80.3H569.5z"/>
</g>
</svg>
